<mxfile host="app.diagrams.net" modified="2020-12-04T22:25:28.744Z" agent="5.0 (Windows NT 10.0; Win64; x64) AppleWebKit/537.36 (KHTML, like Gecko) Chrome/87.0.4280.88 Safari/537.36" etag="-mlt9BJtUKcwgkWhsWZN" version="13.10.9" type="github">
  <diagram id="C5RBs43oDa-KdzZeNtuy" name="Page-1">
    <mxGraphModel dx="2249" dy="1874" grid="1" gridSize="10" guides="1" tooltips="1" connect="1" arrows="1" fold="1" page="1" pageScale="1" pageWidth="827" pageHeight="1169" math="0" shadow="0">
      <root>
        <mxCell id="WIyWlLk6GJQsqaUBKTNV-0" />
        <mxCell id="WIyWlLk6GJQsqaUBKTNV-1" parent="WIyWlLk6GJQsqaUBKTNV-0" />
        <mxCell id="6aHGtUtSjGL5JFhU-OzK-202" style="edgeStyle=orthogonalEdgeStyle;rounded=0;orthogonalLoop=1;jettySize=auto;html=1;endArrow=block;endFill=1;" parent="WIyWlLk6GJQsqaUBKTNV-1" source="zkfFHV4jXpPFQw0GAbJ--0" target="6aHGtUtSjGL5JFhU-OzK-30" edge="1">
          <mxGeometry relative="1" as="geometry" />
        </mxCell>
        <mxCell id="6aHGtUtSjGL5JFhU-OzK-316" style="edgeStyle=orthogonalEdgeStyle;rounded=0;orthogonalLoop=1;jettySize=auto;html=1;exitX=0;exitY=0.5;exitDx=0;exitDy=0;endArrow=block;endFill=1;" parent="WIyWlLk6GJQsqaUBKTNV-1" target="6aHGtUtSjGL5JFhU-OzK-238" edge="1">
          <mxGeometry relative="1" as="geometry">
            <mxPoint x="145" y="77" as="sourcePoint" />
            <Array as="points">
              <mxPoint x="145" y="20" />
            </Array>
          </mxGeometry>
        </mxCell>
        <mxCell id="zkfFHV4jXpPFQw0GAbJ--0" value="Directory" style="swimlane;fontStyle=0;align=center;verticalAlign=top;childLayout=stackLayout;horizontal=1;startSize=40;horizontalStack=0;resizeParent=1;resizeLast=0;collapsible=1;marginBottom=0;rounded=0;shadow=0;strokeWidth=1;" parent="WIyWlLk6GJQsqaUBKTNV-1" vertex="1">
          <mxGeometry x="145" y="-50" width="160" height="156" as="geometry">
            <mxRectangle x="230" y="140" width="160" height="26" as="alternateBounds" />
          </mxGeometry>
        </mxCell>
        <mxCell id="zkfFHV4jXpPFQw0GAbJ--1" value="-players:ListArray&lt;Person&gt;&#xa;-manager:ListArray&lt;Person&gt;&#xa;-records:ListArray&lt;Record&gt;&#xa;" style="text;align=left;verticalAlign=top;spacingLeft=4;spacingRight=4;overflow=hidden;rotatable=0;points=[[0,0.5],[1,0.5]];portConstraint=eastwest;" parent="zkfFHV4jXpPFQw0GAbJ--0" vertex="1">
          <mxGeometry y="40" width="160" height="60" as="geometry" />
        </mxCell>
        <mxCell id="6aHGtUtSjGL5JFhU-OzK-224" style="edgeStyle=orthogonalEdgeStyle;rounded=0;orthogonalLoop=1;jettySize=auto;html=1;endArrow=block;endFill=0;" parent="WIyWlLk6GJQsqaUBKTNV-1" source="6aHGtUtSjGL5JFhU-OzK-22" target="zkfFHV4jXpPFQw0GAbJ--0" edge="1">
          <mxGeometry relative="1" as="geometry" />
        </mxCell>
        <mxCell id="6aHGtUtSjGL5JFhU-OzK-22" value="Interface" style="swimlane;fontStyle=1;align=center;verticalAlign=top;childLayout=stackLayout;horizontal=1;startSize=26;horizontalStack=0;resizeParent=1;resizeParentMax=0;resizeLast=0;collapsible=1;marginBottom=0;" parent="WIyWlLk6GJQsqaUBKTNV-1" vertex="1">
          <mxGeometry x="140" y="-180" width="170" height="86" as="geometry" />
        </mxCell>
        <mxCell id="6aHGtUtSjGL5JFhU-OzK-23" value="Directory: directory" style="text;strokeColor=none;fillColor=none;align=left;verticalAlign=top;spacingLeft=4;spacingRight=4;overflow=hidden;rotatable=0;points=[[0,0.5],[1,0.5]];portConstraint=eastwest;" parent="6aHGtUtSjGL5JFhU-OzK-22" vertex="1">
          <mxGeometry y="26" width="170" height="26" as="geometry" />
        </mxCell>
        <mxCell id="6aHGtUtSjGL5JFhU-OzK-24" value="" style="line;strokeWidth=1;fillColor=none;align=left;verticalAlign=middle;spacingTop=-1;spacingLeft=3;spacingRight=3;rotatable=0;labelPosition=right;points=[];portConstraint=eastwest;" parent="6aHGtUtSjGL5JFhU-OzK-22" vertex="1">
          <mxGeometry y="52" width="170" height="8" as="geometry" />
        </mxCell>
        <mxCell id="6aHGtUtSjGL5JFhU-OzK-25" value=" " style="text;strokeColor=none;fillColor=none;align=left;verticalAlign=top;spacingLeft=4;spacingRight=4;overflow=hidden;rotatable=0;points=[[0,0.5],[1,0.5]];portConstraint=eastwest;" parent="6aHGtUtSjGL5JFhU-OzK-22" vertex="1">
          <mxGeometry y="60" width="170" height="26" as="geometry" />
        </mxCell>
        <mxCell id="6aHGtUtSjGL5JFhU-OzK-30" value="Person" style="swimlane;fontStyle=1;align=center;verticalAlign=top;childLayout=stackLayout;horizontal=1;startSize=40;horizontalStack=0;resizeParent=1;resizeParentMax=0;resizeLast=0;collapsible=1;marginBottom=0;" parent="WIyWlLk6GJQsqaUBKTNV-1" vertex="1">
          <mxGeometry x="75" y="128" width="300" height="230" as="geometry" />
        </mxCell>
        <mxCell id="6aHGtUtSjGL5JFhU-OzK-31" value="-id:String&#xa;-type:String&#xa;-name:String&#xa;-age:Int&#xa;-birthplace:String&#xa;-weight:Int&#xa;-height:Int&#xa;-bats:String&#xa;-throws:String&#xa;-playSpan:String" style="text;strokeColor=none;fillColor=none;align=left;verticalAlign=top;spacingLeft=4;spacingRight=4;overflow=hidden;rotatable=0;points=[[0,0.5],[1,0.5]];portConstraint=eastwest;" parent="6aHGtUtSjGL5JFhU-OzK-30" vertex="1">
          <mxGeometry y="40" width="300" height="150" as="geometry" />
        </mxCell>
        <mxCell id="6aHGtUtSjGL5JFhU-OzK-32" value="" style="line;strokeWidth=1;fillColor=none;align=left;verticalAlign=middle;spacingTop=-1;spacingLeft=3;spacingRight=3;rotatable=0;labelPosition=right;points=[];portConstraint=eastwest;" parent="6aHGtUtSjGL5JFhU-OzK-30" vertex="1">
          <mxGeometry y="190" width="300" height="8" as="geometry" />
        </mxCell>
        <mxCell id="6aHGtUtSjGL5JFhU-OzK-33" value="+ method(type): type" style="text;strokeColor=none;fillColor=none;align=left;verticalAlign=top;spacingLeft=4;spacingRight=4;overflow=hidden;rotatable=0;points=[[0,0.5],[1,0.5]];portConstraint=eastwest;" parent="6aHGtUtSjGL5JFhU-OzK-30" vertex="1">
          <mxGeometry y="198" width="300" height="32" as="geometry" />
        </mxCell>
        <mxCell id="6aHGtUtSjGL5JFhU-OzK-200" style="edgeStyle=orthogonalEdgeStyle;rounded=0;orthogonalLoop=1;jettySize=auto;html=1;endArrow=block;endFill=0;" parent="WIyWlLk6GJQsqaUBKTNV-1" source="6aHGtUtSjGL5JFhU-OzK-34" target="6aHGtUtSjGL5JFhU-OzK-30" edge="1">
          <mxGeometry relative="1" as="geometry" />
        </mxCell>
        <mxCell id="6aHGtUtSjGL5JFhU-OzK-34" value="Player" style="swimlane;fontStyle=1;align=center;verticalAlign=top;childLayout=stackLayout;horizontal=1;startSize=26;horizontalStack=0;resizeParent=1;resizeParentMax=0;resizeLast=0;collapsible=1;marginBottom=0;" parent="WIyWlLk6GJQsqaUBKTNV-1" vertex="1">
          <mxGeometry x="50" y="420" width="160" height="84" as="geometry" />
        </mxCell>
        <mxCell id="6aHGtUtSjGL5JFhU-OzK-35" value="-type=&quot;player&quot;" style="text;strokeColor=none;fillColor=none;align=left;verticalAlign=top;spacingLeft=4;spacingRight=4;overflow=hidden;rotatable=0;points=[[0,0.5],[1,0.5]];portConstraint=eastwest;" parent="6aHGtUtSjGL5JFhU-OzK-34" vertex="1">
          <mxGeometry y="26" width="160" height="24" as="geometry" />
        </mxCell>
        <mxCell id="6aHGtUtSjGL5JFhU-OzK-36" value="" style="line;strokeWidth=1;fillColor=none;align=left;verticalAlign=middle;spacingTop=-1;spacingLeft=3;spacingRight=3;rotatable=0;labelPosition=right;points=[];portConstraint=eastwest;" parent="6aHGtUtSjGL5JFhU-OzK-34" vertex="1">
          <mxGeometry y="50" width="160" height="8" as="geometry" />
        </mxCell>
        <mxCell id="6aHGtUtSjGL5JFhU-OzK-37" value=" " style="text;strokeColor=none;fillColor=none;align=left;verticalAlign=top;spacingLeft=4;spacingRight=4;overflow=hidden;rotatable=0;points=[[0,0.5],[1,0.5]];portConstraint=eastwest;" parent="6aHGtUtSjGL5JFhU-OzK-34" vertex="1">
          <mxGeometry y="58" width="160" height="26" as="geometry" />
        </mxCell>
        <mxCell id="6aHGtUtSjGL5JFhU-OzK-222" style="edgeStyle=orthogonalEdgeStyle;rounded=0;orthogonalLoop=1;jettySize=auto;html=1;endArrow=block;endFill=1;" parent="WIyWlLk6GJQsqaUBKTNV-1" source="zkfFHV4jXpPFQw0GAbJ--0" target="6aHGtUtSjGL5JFhU-OzK-203" edge="1">
          <mxGeometry relative="1" as="geometry" />
        </mxCell>
        <mxCell id="6aHGtUtSjGL5JFhU-OzK-203" value="Franchise" style="swimlane;fontStyle=1;align=center;verticalAlign=top;childLayout=stackLayout;horizontal=1;startSize=26;horizontalStack=0;resizeParent=1;resizeParentMax=0;resizeLast=0;collapsible=1;marginBottom=0;" parent="WIyWlLk6GJQsqaUBKTNV-1" vertex="1">
          <mxGeometry x="414" y="-57" width="160" height="170" as="geometry" />
        </mxCell>
        <mxCell id="6aHGtUtSjGL5JFhU-OzK-204" value="private String id;&#xa;	private String name;&#xa;	private Boolean active;&#xa;	private List&lt;String&gt; teams;" style="text;strokeColor=none;fillColor=none;align=left;verticalAlign=top;spacingLeft=4;spacingRight=4;overflow=hidden;rotatable=0;points=[[0,0.5],[1,0.5]];portConstraint=eastwest;" parent="6aHGtUtSjGL5JFhU-OzK-203" vertex="1">
          <mxGeometry y="26" width="160" height="74" as="geometry" />
        </mxCell>
        <mxCell id="6aHGtUtSjGL5JFhU-OzK-205" value="" style="line;strokeWidth=1;fillColor=none;align=left;verticalAlign=middle;spacingTop=-1;spacingLeft=3;spacingRight=3;rotatable=0;labelPosition=right;points=[];portConstraint=eastwest;" parent="6aHGtUtSjGL5JFhU-OzK-203" vertex="1">
          <mxGeometry y="100" width="160" height="8" as="geometry" />
        </mxCell>
        <mxCell id="6aHGtUtSjGL5JFhU-OzK-206" value="get_id()&#xa;get_name()&#xa;add_team()&#xa;contains_team()" style="text;strokeColor=none;fillColor=none;align=left;verticalAlign=top;spacingLeft=4;spacingRight=4;overflow=hidden;rotatable=0;points=[[0,0.5],[1,0.5]];portConstraint=eastwest;" parent="6aHGtUtSjGL5JFhU-OzK-203" vertex="1">
          <mxGeometry y="108" width="160" height="62" as="geometry" />
        </mxCell>
        <mxCell id="6aHGtUtSjGL5JFhU-OzK-238" value="Record" style="swimlane;fontStyle=1;align=center;verticalAlign=top;childLayout=stackLayout;horizontal=1;startSize=26;horizontalStack=0;resizeParent=1;resizeParentMax=0;resizeLast=0;collapsible=1;marginBottom=0;" parent="WIyWlLk6GJQsqaUBKTNV-1" vertex="1">
          <mxGeometry x="-325" y="-27.5" width="250" height="124" as="geometry" />
        </mxCell>
        <mxCell id="6aHGtUtSjGL5JFhU-OzK-239" value="String type;&#xa;String league;&#xa;Franchise franchise;&#xa;String year;" style="text;strokeColor=none;fillColor=none;align=left;verticalAlign=top;spacingLeft=4;spacingRight=4;overflow=hidden;rotatable=0;points=[[0,0.5],[1,0.5]];portConstraint=eastwest;" parent="6aHGtUtSjGL5JFhU-OzK-238" vertex="1">
          <mxGeometry y="26" width="250" height="64" as="geometry" />
        </mxCell>
        <mxCell id="6aHGtUtSjGL5JFhU-OzK-240" value="" style="line;strokeWidth=1;fillColor=none;align=left;verticalAlign=middle;spacingTop=-1;spacingLeft=3;spacingRight=3;rotatable=0;labelPosition=right;points=[];portConstraint=eastwest;" parent="6aHGtUtSjGL5JFhU-OzK-238" vertex="1">
          <mxGeometry y="90" width="250" height="8" as="geometry" />
        </mxCell>
        <mxCell id="6aHGtUtSjGL5JFhU-OzK-241" value="set_stats()" style="text;strokeColor=none;fillColor=none;align=left;verticalAlign=top;spacingLeft=4;spacingRight=4;overflow=hidden;rotatable=0;points=[[0,0.5],[1,0.5]];portConstraint=eastwest;" parent="6aHGtUtSjGL5JFhU-OzK-238" vertex="1">
          <mxGeometry y="98" width="250" height="26" as="geometry" />
        </mxCell>
        <mxCell id="6aHGtUtSjGL5JFhU-OzK-242" value="FranchiseRecord" style="swimlane;fontStyle=1;align=center;verticalAlign=top;childLayout=stackLayout;horizontal=1;startSize=26;horizontalStack=0;resizeParent=1;resizeParentMax=0;resizeLast=0;collapsible=1;marginBottom=0;" parent="WIyWlLk6GJQsqaUBKTNV-1" vertex="1">
          <mxGeometry x="-670" width="160" height="500" as="geometry" />
        </mxCell>
        <mxCell id="6aHGtUtSjGL5JFhU-OzK-243" value="Integer rank;&#xa;	Integer games;&#xa;	Integer games_won;&#xa;	Integer games_lost;&#xa;	Integer runs; //R&#xa;	Integer at_bats; //AB&#xa;	Integer hits; //H&#xa;	Integer doubles; //2b&#xa;	Integer triples; //3b&#xa;	Integer home_runs; //HR&#xa;	Integer walks; //BB&#xa;	Integer strike_outs; //SO&#xa;	Integer stolen_bases; //SB&#xa;	Integer caught_stealing; //CS&#xa;	Integer hit_by_pitch; //HBP&#xa;	Integer sacrifice_flies; //SF&#xa;	Integer earned_runs_allowed; //ER&#xa;	Float earned_runs_average; //ERA&#xa;	Integer complete_games; //CG&#xa;	Integer shutouts; //SHO&#xa;	Integer saves; //SV&#xa;	Integer hits_allowed; //HA&#xa;	Integer home_runs_allowed; //HRA&#xa;	Integer walks_allowed; //BBA&#xa;	Integer pitcher_strike_outs; //SOA&#xa;	Integer errors; //E&#xa;	Integer double_plays; //DP&#xa;	Float fielding_percentage; //FP	" style="text;strokeColor=none;fillColor=none;align=left;verticalAlign=top;spacingLeft=4;spacingRight=4;overflow=hidden;rotatable=0;points=[[0,0.5],[1,0.5]];portConstraint=eastwest;" parent="6aHGtUtSjGL5JFhU-OzK-242" vertex="1">
          <mxGeometry y="26" width="160" height="404" as="geometry" />
        </mxCell>
        <mxCell id="6aHGtUtSjGL5JFhU-OzK-244" value="" style="line;strokeWidth=1;fillColor=none;align=left;verticalAlign=middle;spacingTop=-1;spacingLeft=3;spacingRight=3;rotatable=0;labelPosition=right;points=[];portConstraint=eastwest;" parent="6aHGtUtSjGL5JFhU-OzK-242" vertex="1">
          <mxGeometry y="430" width="160" height="8" as="geometry" />
        </mxCell>
        <mxCell id="6aHGtUtSjGL5JFhU-OzK-245" value="set_stats()" style="text;strokeColor=none;fillColor=none;align=left;verticalAlign=top;spacingLeft=4;spacingRight=4;overflow=hidden;rotatable=0;points=[[0,0.5],[1,0.5]];portConstraint=eastwest;" parent="6aHGtUtSjGL5JFhU-OzK-242" vertex="1">
          <mxGeometry y="438" width="160" height="62" as="geometry" />
        </mxCell>
        <mxCell id="6aHGtUtSjGL5JFhU-OzK-246" value="BattingRecord" style="swimlane;fontStyle=1;align=center;verticalAlign=top;childLayout=stackLayout;horizontal=1;startSize=26;horizontalStack=0;resizeParent=1;resizeParentMax=0;resizeLast=0;collapsible=1;marginBottom=0;" parent="WIyWlLk6GJQsqaUBKTNV-1" vertex="1">
          <mxGeometry x="-460" y="260" width="160" height="324" as="geometry" />
        </mxCell>
        <mxCell id="6aHGtUtSjGL5JFhU-OzK-247" value="-type=&quot;batting&quot;&#xa;Integer games; //G&#xa;	Integer at_bats; //AB&#xa;	Integer runs; //R&#xa;	Integer hits; //H&#xa;	Integer doubles; //2b&#xa;	Integer triples; //3B&#xa;	Integer home_runs; //HR&#xa;	Integer rbi; //RBI&#xa;	Integer stolen_bases; //SB&#xa;	Integer caught_stealing; //CS&#xa;	Integer walks; //BB&#xa;	Integer strike_outs;&#xa;	Integer intentional_walks; //IBB&#xa;	Integer hit_by_pitch; //HBP&#xa;	Integer sacrifice_hits; //SH&#xa;	Integer sacrifice_flies; //SF&#xa;	Integer grounded_into_double_play; //GIDP" style="text;strokeColor=none;fillColor=none;align=left;verticalAlign=top;spacingLeft=4;spacingRight=4;overflow=hidden;rotatable=0;points=[[0,0.5],[1,0.5]];portConstraint=eastwest;" parent="6aHGtUtSjGL5JFhU-OzK-246" vertex="1">
          <mxGeometry y="26" width="160" height="264" as="geometry" />
        </mxCell>
        <mxCell id="6aHGtUtSjGL5JFhU-OzK-248" value="" style="line;strokeWidth=1;fillColor=none;align=left;verticalAlign=middle;spacingTop=-1;spacingLeft=3;spacingRight=3;rotatable=0;labelPosition=right;points=[];portConstraint=eastwest;" parent="6aHGtUtSjGL5JFhU-OzK-246" vertex="1">
          <mxGeometry y="290" width="160" height="8" as="geometry" />
        </mxCell>
        <mxCell id="6aHGtUtSjGL5JFhU-OzK-249" value="set_stats()" style="text;strokeColor=none;fillColor=none;align=left;verticalAlign=top;spacingLeft=4;spacingRight=4;overflow=hidden;rotatable=0;points=[[0,0.5],[1,0.5]];portConstraint=eastwest;" parent="6aHGtUtSjGL5JFhU-OzK-246" vertex="1">
          <mxGeometry y="298" width="160" height="26" as="geometry" />
        </mxCell>
        <mxCell id="6aHGtUtSjGL5JFhU-OzK-250" value="FieldingRecord" style="swimlane;fontStyle=1;align=center;verticalAlign=top;childLayout=stackLayout;horizontal=1;startSize=26;horizontalStack=0;resizeParent=1;resizeParentMax=0;resizeLast=0;collapsible=1;marginBottom=0;" parent="WIyWlLk6GJQsqaUBKTNV-1" vertex="1">
          <mxGeometry x="-120" y="260" width="160" height="234" as="geometry" />
        </mxCell>
        <mxCell id="6aHGtUtSjGL5JFhU-OzK-251" value="-type=&quot;fielding&quot;&#xa;String position;&#xa;	Integer games; //G&#xa;	Integer games_started; //GS&#xa;	Integer putouts; //PO&#xa;	Integer assists; //A&#xa;	Integer errors; //E&#xa;	Integer double_plays; //DP&#xa;	Integer passed_balls; //PB&#xa;	Integer wild_pitches; //WP&#xa;	Integer stolen_bases; //SB&#xa;	Integer caught_stealing; //CS" style="text;strokeColor=none;fillColor=none;align=left;verticalAlign=top;spacingLeft=4;spacingRight=4;overflow=hidden;rotatable=0;points=[[0,0.5],[1,0.5]];portConstraint=eastwest;" parent="6aHGtUtSjGL5JFhU-OzK-250" vertex="1">
          <mxGeometry y="26" width="160" height="174" as="geometry" />
        </mxCell>
        <mxCell id="6aHGtUtSjGL5JFhU-OzK-252" value="" style="line;strokeWidth=1;fillColor=none;align=left;verticalAlign=middle;spacingTop=-1;spacingLeft=3;spacingRight=3;rotatable=0;labelPosition=right;points=[];portConstraint=eastwest;" parent="6aHGtUtSjGL5JFhU-OzK-250" vertex="1">
          <mxGeometry y="200" width="160" height="8" as="geometry" />
        </mxCell>
        <mxCell id="6aHGtUtSjGL5JFhU-OzK-253" value="set_stats()" style="text;strokeColor=none;fillColor=none;align=left;verticalAlign=top;spacingLeft=4;spacingRight=4;overflow=hidden;rotatable=0;points=[[0,0.5],[1,0.5]];portConstraint=eastwest;" parent="6aHGtUtSjGL5JFhU-OzK-250" vertex="1">
          <mxGeometry y="208" width="160" height="26" as="geometry" />
        </mxCell>
        <mxCell id="6aHGtUtSjGL5JFhU-OzK-254" value="PitchingRecord" style="swimlane;fontStyle=1;align=center;verticalAlign=top;childLayout=stackLayout;horizontal=1;startSize=26;horizontalStack=0;resizeParent=1;resizeParentMax=0;resizeLast=0;collapsible=1;marginBottom=0;" parent="WIyWlLk6GJQsqaUBKTNV-1" vertex="1">
          <mxGeometry x="-290" y="260" width="160" height="394" as="geometry" />
        </mxCell>
        <mxCell id="6aHGtUtSjGL5JFhU-OzK-255" value="-type=&quot;pitching&quot;&#xa;Integer wins; //W&#xa;	Integer losses; //L&#xa;	Integer games; //G&#xa;	Integer games_started; //GS&#xa;	Integer games_finished; //GF&#xa;	Integer complete_games; //CG&#xa;	Integer shutouts; //SHO&#xa;	Integer saves; //SV&#xa;	Integer outs_pitched; //IPOuts&#xa;	Integer hits; //H&#xa;	Integer earned_runs; //ER&#xa;	Integer home_runs; //HR&#xa;	Integer walks; //BB&#xa;	Integer strike_outs; //SO&#xa;	Float opp_batting_avg; //BAOpp&#xa;	Float era; //ERA&#xa;	Integer intentional_walks; //IBB&#xa;	Integer wild_pitches; //WP&#xa;	Integer bat_hit_by_pitch; //BHP&#xa;	Integer balks; //BK&#xa;	Integer batters_faced; //BFP&#xa;	Integer runs_allowed; //R" style="text;strokeColor=none;fillColor=none;align=left;verticalAlign=top;spacingLeft=4;spacingRight=4;overflow=hidden;rotatable=0;points=[[0,0.5],[1,0.5]];portConstraint=eastwest;" parent="6aHGtUtSjGL5JFhU-OzK-254" vertex="1">
          <mxGeometry y="26" width="160" height="334" as="geometry" />
        </mxCell>
        <mxCell id="6aHGtUtSjGL5JFhU-OzK-256" value="" style="line;strokeWidth=1;fillColor=none;align=left;verticalAlign=middle;spacingTop=-1;spacingLeft=3;spacingRight=3;rotatable=0;labelPosition=right;points=[];portConstraint=eastwest;" parent="6aHGtUtSjGL5JFhU-OzK-254" vertex="1">
          <mxGeometry y="360" width="160" height="8" as="geometry" />
        </mxCell>
        <mxCell id="6aHGtUtSjGL5JFhU-OzK-257" value="set_stats()" style="text;strokeColor=none;fillColor=none;align=left;verticalAlign=top;spacingLeft=4;spacingRight=4;overflow=hidden;rotatable=0;points=[[0,0.5],[1,0.5]];portConstraint=eastwest;" parent="6aHGtUtSjGL5JFhU-OzK-254" vertex="1">
          <mxGeometry y="368" width="160" height="26" as="geometry" />
        </mxCell>
        <mxCell id="6aHGtUtSjGL5JFhU-OzK-313" style="edgeStyle=orthogonalEdgeStyle;rounded=0;orthogonalLoop=1;jettySize=auto;html=1;endArrow=block;endFill=0;" parent="WIyWlLk6GJQsqaUBKTNV-1" source="6aHGtUtSjGL5JFhU-OzK-309" target="6aHGtUtSjGL5JFhU-OzK-30" edge="1">
          <mxGeometry relative="1" as="geometry" />
        </mxCell>
        <mxCell id="6aHGtUtSjGL5JFhU-OzK-309" value="Manager" style="swimlane;fontStyle=1;align=center;verticalAlign=top;childLayout=stackLayout;horizontal=1;startSize=26;horizontalStack=0;resizeParent=1;resizeParentMax=0;resizeLast=0;collapsible=1;marginBottom=0;" parent="WIyWlLk6GJQsqaUBKTNV-1" vertex="1">
          <mxGeometry x="250" y="420" width="160" height="84" as="geometry" />
        </mxCell>
        <mxCell id="6aHGtUtSjGL5JFhU-OzK-310" value="-type=&quot;manager&quot;" style="text;strokeColor=none;fillColor=none;align=left;verticalAlign=top;spacingLeft=4;spacingRight=4;overflow=hidden;rotatable=0;points=[[0,0.5],[1,0.5]];portConstraint=eastwest;" parent="6aHGtUtSjGL5JFhU-OzK-309" vertex="1">
          <mxGeometry y="26" width="160" height="24" as="geometry" />
        </mxCell>
        <mxCell id="6aHGtUtSjGL5JFhU-OzK-311" value="" style="line;strokeWidth=1;fillColor=none;align=left;verticalAlign=middle;spacingTop=-1;spacingLeft=3;spacingRight=3;rotatable=0;labelPosition=right;points=[];portConstraint=eastwest;" parent="6aHGtUtSjGL5JFhU-OzK-309" vertex="1">
          <mxGeometry y="50" width="160" height="8" as="geometry" />
        </mxCell>
        <mxCell id="6aHGtUtSjGL5JFhU-OzK-312" value=" " style="text;strokeColor=none;fillColor=none;align=left;verticalAlign=top;spacingLeft=4;spacingRight=4;overflow=hidden;rotatable=0;points=[[0,0.5],[1,0.5]];portConstraint=eastwest;" parent="6aHGtUtSjGL5JFhU-OzK-309" vertex="1">
          <mxGeometry y="58" width="160" height="26" as="geometry" />
        </mxCell>
        <mxCell id="_f1vO_gIGirxiqGg4NEv-1" value="PlayerRecord" style="swimlane;fontStyle=1;align=center;verticalAlign=top;childLayout=stackLayout;horizontal=1;startSize=26;horizontalStack=0;resizeParent=1;resizeParentMax=0;resizeLast=0;collapsible=1;marginBottom=0;" vertex="1" parent="WIyWlLk6GJQsqaUBKTNV-1">
          <mxGeometry x="-290" y="120" width="160" height="60" as="geometry" />
        </mxCell>
        <mxCell id="_f1vO_gIGirxiqGg4NEv-2" value="Person: player" style="text;strokeColor=none;fillColor=none;align=left;verticalAlign=top;spacingLeft=4;spacingRight=4;overflow=hidden;rotatable=0;points=[[0,0.5],[1,0.5]];portConstraint=eastwest;" vertex="1" parent="_f1vO_gIGirxiqGg4NEv-1">
          <mxGeometry y="26" width="160" height="26" as="geometry" />
        </mxCell>
        <mxCell id="_f1vO_gIGirxiqGg4NEv-3" value="" style="line;strokeWidth=1;fillColor=none;align=left;verticalAlign=middle;spacingTop=-1;spacingLeft=3;spacingRight=3;rotatable=0;labelPosition=right;points=[];portConstraint=eastwest;" vertex="1" parent="_f1vO_gIGirxiqGg4NEv-1">
          <mxGeometry y="52" width="160" height="8" as="geometry" />
        </mxCell>
        <mxCell id="_f1vO_gIGirxiqGg4NEv-5" value="ManagerRecord" style="swimlane;fontStyle=1;align=center;verticalAlign=top;childLayout=stackLayout;horizontal=1;startSize=26;horizontalStack=0;resizeParent=1;resizeParentMax=0;resizeLast=0;collapsible=1;marginBottom=0;" vertex="1" parent="WIyWlLk6GJQsqaUBKTNV-1">
          <mxGeometry x="-670" y="-204" width="160" height="154" as="geometry" />
        </mxCell>
        <mxCell id="_f1vO_gIGirxiqGg4NEv-6" value="-type=&quot;manager&quot;&#xa;Person manager;&#xa;	Integer games_played;&#xa;	Integer games_won;&#xa;	Integer games_lost;&#xa;	Integer rank;" style="text;strokeColor=none;fillColor=none;align=left;verticalAlign=top;spacingLeft=4;spacingRight=4;overflow=hidden;rotatable=0;points=[[0,0.5],[1,0.5]];portConstraint=eastwest;" vertex="1" parent="_f1vO_gIGirxiqGg4NEv-5">
          <mxGeometry y="26" width="160" height="94" as="geometry" />
        </mxCell>
        <mxCell id="_f1vO_gIGirxiqGg4NEv-7" value="" style="line;strokeWidth=1;fillColor=none;align=left;verticalAlign=middle;spacingTop=-1;spacingLeft=3;spacingRight=3;rotatable=0;labelPosition=right;points=[];portConstraint=eastwest;" vertex="1" parent="_f1vO_gIGirxiqGg4NEv-5">
          <mxGeometry y="120" width="160" height="8" as="geometry" />
        </mxCell>
        <mxCell id="_f1vO_gIGirxiqGg4NEv-8" value="set_stats()" style="text;strokeColor=none;fillColor=none;align=left;verticalAlign=top;spacingLeft=4;spacingRight=4;overflow=hidden;rotatable=0;points=[[0,0.5],[1,0.5]];portConstraint=eastwest;" vertex="1" parent="_f1vO_gIGirxiqGg4NEv-5">
          <mxGeometry y="128" width="160" height="26" as="geometry" />
        </mxCell>
        <mxCell id="_f1vO_gIGirxiqGg4NEv-11" style="edgeStyle=orthogonalEdgeStyle;rounded=0;orthogonalLoop=1;jettySize=auto;html=1;exitX=1;exitY=0.5;exitDx=0;exitDy=0;endArrow=block;endFill=1;entryX=0;entryY=0.5;entryDx=0;entryDy=0;" edge="1" parent="WIyWlLk6GJQsqaUBKTNV-1" source="6aHGtUtSjGL5JFhU-OzK-243" target="6aHGtUtSjGL5JFhU-OzK-241">
          <mxGeometry relative="1" as="geometry">
            <mxPoint x="-140" y="-57" as="sourcePoint" />
            <mxPoint x="-360" y="-114" as="targetPoint" />
            <Array as="points">
              <mxPoint x="-450" y="228" />
              <mxPoint x="-450" y="40" />
              <mxPoint x="-325" y="40" />
            </Array>
          </mxGeometry>
        </mxCell>
        <mxCell id="_f1vO_gIGirxiqGg4NEv-12" style="edgeStyle=orthogonalEdgeStyle;rounded=0;orthogonalLoop=1;jettySize=auto;html=1;exitX=1;exitY=0.5;exitDx=0;exitDy=0;endArrow=block;endFill=1;entryX=0;entryY=0.25;entryDx=0;entryDy=0;" edge="1" parent="WIyWlLk6GJQsqaUBKTNV-1" source="_f1vO_gIGirxiqGg4NEv-6" target="6aHGtUtSjGL5JFhU-OzK-238">
          <mxGeometry relative="1" as="geometry">
            <mxPoint x="-403" y="53.5" as="sourcePoint" />
            <mxPoint x="-315" y="106" as="targetPoint" />
            <Array as="points">
              <mxPoint x="-420" y="-131" />
              <mxPoint x="-420" y="-6" />
            </Array>
          </mxGeometry>
        </mxCell>
        <mxCell id="_f1vO_gIGirxiqGg4NEv-14" style="edgeStyle=orthogonalEdgeStyle;rounded=0;orthogonalLoop=1;jettySize=auto;html=1;exitX=0.5;exitY=0;exitDx=0;exitDy=0;endArrow=block;endFill=1;" edge="1" parent="WIyWlLk6GJQsqaUBKTNV-1" source="_f1vO_gIGirxiqGg4NEv-1" target="6aHGtUtSjGL5JFhU-OzK-241">
          <mxGeometry relative="1" as="geometry">
            <mxPoint x="-90" y="92" as="sourcePoint" />
            <mxPoint x="-2" y="144.5" as="targetPoint" />
            <Array as="points">
              <mxPoint x="-200" y="110" />
              <mxPoint x="-200" y="110" />
            </Array>
          </mxGeometry>
        </mxCell>
        <mxCell id="_f1vO_gIGirxiqGg4NEv-16" style="edgeStyle=orthogonalEdgeStyle;rounded=0;orthogonalLoop=1;jettySize=auto;html=1;exitX=0.5;exitY=0;exitDx=0;exitDy=0;endArrow=block;endFill=1;entryX=0.5;entryY=1;entryDx=0;entryDy=0;" edge="1" parent="WIyWlLk6GJQsqaUBKTNV-1" source="6aHGtUtSjGL5JFhU-OzK-254" target="_f1vO_gIGirxiqGg4NEv-1">
          <mxGeometry relative="1" as="geometry">
            <mxPoint x="-383" y="144.5" as="sourcePoint" />
            <mxPoint x="-200" y="210" as="targetPoint" />
            <Array as="points" />
          </mxGeometry>
        </mxCell>
        <mxCell id="_f1vO_gIGirxiqGg4NEv-17" style="edgeStyle=orthogonalEdgeStyle;rounded=0;orthogonalLoop=1;jettySize=auto;html=1;exitX=0.5;exitY=0;exitDx=0;exitDy=0;endArrow=block;endFill=1;entryX=1;entryY=0.5;entryDx=0;entryDy=0;" edge="1" parent="WIyWlLk6GJQsqaUBKTNV-1" source="6aHGtUtSjGL5JFhU-OzK-250" target="_f1vO_gIGirxiqGg4NEv-2">
          <mxGeometry relative="1" as="geometry">
            <mxPoint x="-190" y="270" as="sourcePoint" />
            <mxPoint x="-190" y="220" as="targetPoint" />
            <Array as="points">
              <mxPoint x="-30" y="159" />
            </Array>
          </mxGeometry>
        </mxCell>
        <mxCell id="_f1vO_gIGirxiqGg4NEv-18" style="edgeStyle=orthogonalEdgeStyle;rounded=0;orthogonalLoop=1;jettySize=auto;html=1;exitX=0.5;exitY=0;exitDx=0;exitDy=0;endArrow=block;endFill=1;entryX=0;entryY=0.5;entryDx=0;entryDy=0;" edge="1" parent="WIyWlLk6GJQsqaUBKTNV-1" source="6aHGtUtSjGL5JFhU-OzK-246" target="_f1vO_gIGirxiqGg4NEv-2">
          <mxGeometry relative="1" as="geometry">
            <mxPoint x="-180" y="280" as="sourcePoint" />
            <mxPoint x="-180" y="230" as="targetPoint" />
            <Array as="points">
              <mxPoint x="-370" y="159" />
            </Array>
          </mxGeometry>
        </mxCell>
      </root>
    </mxGraphModel>
  </diagram>
</mxfile>
